HIERARCHY
ROOT Hips
{
	OFFSET 0.000000 0.000000 0.000000
	CHANNELS 6 Xposition Yposition Zposition Xrotation Yrotation Zrotation
	JOINT LeftUpLeg_virtual
	{
		OFFSET 0.000000 0.000000 0.000000
		CHANNELS 3 Xrotation Yrotation Zrotation
		JOINT LeftUpLeg
		{
			OFFSET 11.394100 -6.187798 -0.413800
			CHANNELS 3 Xrotation Yrotation Zrotation
			JOINT LeftLeg
			{
				OFFSET 0.430247 -32.302673 3.732800
				CHANNELS 3 Xrotation Yrotation Zrotation
				JOINT LeftFoot
				{
					OFFSET -0.430247 -48.264931 -6.423300
					CHANNELS 3 Xrotation Yrotation Zrotation
					JOINT LeftToeBase
					{
						OFFSET 4.230900 -16.068199 23.438400
						CHANNELS 3 Xrotation Yrotation Zrotation
						JOINT LeftToe_End
						{
							OFFSET 4.510700 0.695400 19.974600
							CHANNELS 3 Xrotation Yrotation Zrotation
							End Site
							{
								OFFSET 0 0 0
							}
						}
					}
				}
			}
		}
	}
	JOINT RightUpLeg_virtual
	{
		OFFSET 0.000000 0.000000 0.000000
		CHANNELS 3 Xrotation Yrotation Zrotation
		JOINT RightUpLeg
		{
			OFFSET -11.333700 -6.187798 -0.413800
			CHANNELS 3 Xrotation Yrotation Zrotation
			JOINT RightLeg
			{
				OFFSET -0.430392 -32.302628 3.733000
				CHANNELS 3 Xrotation Yrotation Zrotation
				JOINT RightFoot
				{
					OFFSET 0.430392 -48.264973 -6.423500
					CHANNELS 3 Xrotation Yrotation Zrotation
					JOINT RightToeBase
					{
						OFFSET -4.230900 -16.068199 23.438400
						CHANNELS 3 Xrotation Yrotation Zrotation
						JOINT RightToe_End
						{
							OFFSET -4.510700 0.695400 19.974600
							CHANNELS 3 Xrotation Yrotation Zrotation
							End Site
							{
								OFFSET 0 0 0
							}
						}
					}
				}
			}
		}
	}
	JOINT Spine_virtual
	{
		OFFSET 0.000000 0.000000 0.000000
		CHANNELS 3 Xrotation Yrotation Zrotation
		JOINT Spine
		{
			OFFSET -0.002400 12.777504 0.315300
			CHANNELS 3 Xrotation Yrotation Zrotation
			JOINT Spine1
			{
				OFFSET -0.002067 5.816869 0.032633
				CHANNELS 3 Xrotation Yrotation Zrotation
				JOINT Spine1_split
				{
					OFFSET -0.002067 5.816869 0.032633
					CHANNELS 3 Xrotation Yrotation Zrotation
					JOINT Spine2
					{
						OFFSET -0.002067 5.816869 0.032633
						CHANNELS 3 Xrotation Yrotation Zrotation
						JOINT Neck_virtual
						{
							OFFSET 0.000000 0.000000 0.000000
							CHANNELS 3 Xrotation Yrotation Zrotation
							JOINT Neck
							{
								OFFSET -0.003700 21.199493 -0.826900
								CHANNELS 3 Xrotation Yrotation Zrotation
								JOINT Head
								{
									OFFSET 0.000000 20.442200 4.834800
									CHANNELS 3 Xrotation Yrotation Zrotation
									JOINT HeadTop_End
									{
										OFFSET 0.000000 34.668396 4.968400
										CHANNELS 3 Xrotation Yrotation Zrotation
										End Site
										{
											OFFSET 0 0 0
										}
									}
								}
							}
						}
						JOINT LeftShoulder_virtual
						{
							OFFSET 0.000000 0.000000 0.000000
							CHANNELS 3 Xrotation Yrotation Zrotation
							JOINT LeftShoulder
							{
								OFFSET 3.288150 8.794197 -1.372250
								CHANNELS 3 Xrotation Yrotation Zrotation
								JOINT LeftShoulder_split
								{
									OFFSET 3.288150 8.794197 -1.372250
									CHANNELS 3 Xrotation Yrotation Zrotation
									JOINT LeftArm
									{
										OFFSET 11.953299 -2.279007 -0.146200
										CHANNELS 3 Xrotation Yrotation Zrotation
										JOINT LeftForeArm
										{
											OFFSET 18.448900 0.000000 0.000000
											CHANNELS 3 Xrotation Yrotation Zrotation
											JOINT LeftHand
											{
												OFFSET 29.527798 0.000000 0.000000
												CHANNELS 3 Xrotation Yrotation Zrotation
												End Site
												{
													OFFSET 0 0 0
												}
											}
										}
									}
								}
							}
						}
						JOINT RightShoulder_virtual
						{
							OFFSET 0.000000 0.000000 0.000000
							CHANNELS 3 Xrotation Yrotation Zrotation
							JOINT RightShoulder
							{
								OFFSET -3.249400 8.794197 -1.372250
								CHANNELS 3 Xrotation Yrotation Zrotation
								JOINT RightShoulder_split
								{
									OFFSET -3.249400 8.794197 -1.372250
									CHANNELS 3 Xrotation Yrotation Zrotation
									JOINT RightArm
									{
										OFFSET -11.953299 -2.279007 -0.146200
										CHANNELS 3 Xrotation Yrotation Zrotation
										JOINT RightForeArm
										{
											OFFSET -18.448900 0.000000 0.000000
											CHANNELS 3 Xrotation Yrotation Zrotation
											JOINT RightHand
											{
												OFFSET -29.527802 0.000000 0.000000
												CHANNELS 3 Xrotation Yrotation Zrotation
												End Site
												{
													OFFSET 0 0 0
												}
											}
										}
									}
								}
							}
						}
					}
				}
			}
		}
	}
}
MOTION
Frames: 7
Frame Time: 0.03333333
3.085662 54.732002 -3.356468 0.000000 0.000000 0.000000 178.804626 -8.278445 171.080625 -80.822544 -30.168160 25.114648 114.782804 -16.359066 -3.859875 -25.847540 1.881376 -8.683500 -19.967235 -0.495070 0.556407 0.000000 0.000000 0.000000 178.857328 -6.042641 171.325364 -44.678825 6.109334 -27.657932 99.757201 11.319038 -1.217757 -42.164971 -8.844872 18.311920 -4.477197 -2.443124 0.770587 0.000000 0.000000 0.000000 179.275595 -7.036347 170.259295 7.694436 4.166733 -2.527336 7.586908 7.068562 -3.908247 0.535274 -3.041202 0.657719 0.000000 0.000000 0.000000 7.760376 6.546819 -3.774147 -2.663826 23.606018 6.994626 5.578763 33.641557 -24.304875 0.000000 0.000000 0.000000 8.409542 6.912353 -4.006019 1.027239 -13.614182 -10.340764 -3.252567 -1.579709 -3.710255 3.435048 2.469417 -31.749933 36.431109 -41.113169 1.052240 0.000000 0.000000 0.000000 7.919379 6.819666 -4.377624 5.115369 -18.244607 13.963209 2.353733 3.277080 -1.869519 13.037416 -13.726208 60.717110 34.417699 50.581936 -8.559538 0.000000 0.000000 0.000000 
3.081994 54.737892 -3.343380 0.000000 0.000000 0.000000 178.798015 -8.280237 171.086608 -80.831122 -30.174881 25.125464 114.779061 -16.357372 -3.846661 -25.810178 1.871839 -8.656990 -19.958156 -0.489656 0.550600 0.000000 0.000000 0.000000 178.851263 -6.060286 171.337262 -44.679826 6.100474 -27.656305 99.741546 11.317691 -1.219730 -42.174441 -8.844473 18.307400 -4.471624 -2.436453 0.770187 0.000000 0.000000 0.000000 179.262727 -7.041632 170.272969 7.687156 4.163805 -2.517379 7.576635 7.066864 -3.898748 0.513718 -3.042101 0.660511 0.000000 0.000000 0.000000 7.761919 6.547448 -3.766038 -2.616434 23.620710 6.969472 5.564764 33.648401 -24.292089 0.000000 0.000000 0.000000 8.407131 6.910863 -3.996483 1.029112 -13.629036 -10.349350 -3.262210 -1.598997 -3.717783 3.404174 2.501898 -31.745073 36.423876 -41.078076 1.038657 0.000000 0.000000 0.000000 7.907498 6.816814 -4.368598 5.119754 -18.240225 13.951662 2.362812 3.254845 -1.869790 13.020931 -13.723954 60.715771 34.403492 50.553833 -8.556282 0.000000 0.000000 0.000000 
3.073699 54.746456 -3.335194 0.000000 0.000000 0.000000 178.776554 -8.303475 171.085625 -80.872978 -30.174649 25.117799 114.764841 -16.349272 -3.832950 -25.750250 1.859238 -8.629042 -19.933081 -0.480503 0.538815 0.000000 0.000000 0.000000 178.831182 -6.094477 171.345022 -44.677258 6.083539 -27.666755 99.738677 11.319383 -1.221935 -42.174748 -8.843090 18.328280 -4.472630 -2.432272 0.758575 0.000000 0.000000 0.000000 179.238494 -7.066230 170.281342 7.677920 4.153431 -2.504542 7.564669 7.068603 -3.882586 0.515025 -3.035180 0.665202 0.000000 0.000000 0.000000 7.753654 6.552840 -3.751569 -2.526596 23.626123 6.928149 5.589949 33.657693 -24.330981 0.000000 0.000000 0.000000 8.400547 6.912792 -3.980980 1.026479 -13.668786 -10.372314 -3.269282 -1.602374 -3.725892 3.370775 2.556475 -31.746002 36.408805 -41.049430 1.023800 0.000000 0.000000 0.000000 7.890266 6.819973 -4.351425 5.129513 -18.240242 13.915389 2.377409 3.244807 -1.872462 12.983974 -13.686990 60.741234 34.376089 50.459320 -8.545778 0.000000 0.000000 0.000000 
3.064766 54.756325 -3.332340 0.000000 0.000000 0.000000 178.744124 -8.347419 171.077606 -80.951115 -30.164718 25.091672 114.742506 -16.333335 -3.821361 -25.684931 1.846812 -8.599565 -19.868657 -0.466628 0.516753 0.000000 0.000000 0.000000 178.799886 -6.141082 171.345732 -44.657901 6.062251 -27.684555 99.746252 11.322790 -1.225438 -42.176845 -8.845921 18.372174 -4.475199 -2.430246 0.739106 0.000000 0.000000 0.000000 179.205504 -7.109150 170.280728 7.670980 4.138298 -2.490598 7.555038 7.076102 -3.861742 0.533396 -3.027102 0.665318 0.000000 0.000000 0.000000 7.739569 6.564333 -3.732938 -2.405410 23.619911 6.883273 5.660309 33.675408 -24.426153 0.000000 0.000000 0.000000 8.393355 6.919087 -3.961447 1.019601 -13.729456 -10.407211 -3.274376 -1.592577 -3.726632 3.331021 2.623074 -31.750298 36.387891 -41.034878 1.010885 0.000000 0.000000 0.000000 7.873350 6.830590 -4.328674 5.143319 -18.246557 13.856936 2.393135 3.246018 -1.886486 12.927146 -13.615861 60.794496 34.333688 50.301601 -8.527378 0.000000 0.000000 0.000000 
3.055211 54.765434 -3.331589 0.000000 0.000000 0.000000 178.704933 -8.409172 171.064560 -81.070077 -30.151023 25.042457 114.717112 -16.312720 -3.807122 -25.614895 1.832547 -8.579789 -19.759456 -0.449445 0.488568 0.000000 0.000000 0.000000 178.761541 -6.197891 171.339339 -44.607419 6.036125 -27.701750 99.755241 11.324338 -1.228823 -42.195126 -8.859557 18.424029 -4.470194 -2.431351 0.717914 0.000000 0.000000 0.000000 179.167145 -7.169230 170.272122 7.668319 4.123054 -2.477058 7.550974 7.090042 -3.838025 0.548669 -3.019406 0.666835 0.000000 0.000000 0.000000 7.725624 6.582355 -3.712850 -2.266124 23.604707 6.850894 5.780051 33.706256 -24.578637 0.000000 0.000000 0.000000 8.390747 6.930445 -3.939640 1.010471 -13.802453 -10.449258 -3.269814 -1.579897 -3.719117 3.282271 2.694012 -31.755250 36.364825 -41.044809 1.004953 0.000000 0.000000 0.000000 7.862471 6.848633 -4.303540 5.159428 -18.265913 13.779469 2.398955 3.247329 -1.906896 12.853283 -13.512824 60.868904 34.279715 50.094653 -8.505688 0.000000 0.000000 0.000000 
3.046660 54.770760 -3.325909 0.000000 0.000000 0.000000 178.663979 -8.482371 171.047280 -81.226836 -30.143131 24.969304 114.690911 -16.293770 -3.784120 -25.531172 1.810061 -8.578508 -19.636977 -0.435338 0.471457 0.000000 0.000000 0.000000 178.720055 -6.265294 171.324039 -44.518135 6.006065 -27.712685 99.756135 11.322579 -1.230932 -42.240455 -8.888986 18.472052 -4.455500 -2.434979 0.700068 0.000000 0.000000 0.000000 179.127107 -7.240600 170.255606 7.671779 4.112010 -2.465172 7.555246 7.110844 -3.813766 0.553122 -3.010655 0.676463 0.000000 0.000000 0.000000 7.717510 6.605933 -3.693757 -2.122838 23.582224 6.842856 5.950566 33.751721 -24.785392 0.000000 0.000000 0.000000 8.398721 6.946398 -3.917021 1.001184 -13.877220 -10.492714 -3.259150 -1.565673 -3.707343 3.216776 2.756525 -31.757169 36.339123 -41.086317 1.009120 0.000000 0.000000 0.000000 7.862847 6.872290 -4.278786 5.175942 -18.304367 13.687244 2.402535 3.246633 -1.935578 12.767380 -13.381865 60.960996 34.220962 49.856874 -8.488335 0.000000 0.000000 0.000000 
3.042311 54.775078 -3.317749 0.000000 0.000000 0.000000 178.624869 -8.564793 171.025669 -81.412494 -30.148329 24.876773 114.665448 -16.276971 -3.754479 -25.430454 1.776997 -8.587636 -19.524897 -0.427299 0.469522 0.000000 0.000000 0.000000 178.679128 -6.342557 171.300052 -44.390847 5.971217 -27.711642 99.741717 11.314453 -1.229493 -42.309074 -8.936163 18.509592 -4.442271 -2.440899 0.689789 0.000000 0.000000 0.000000 179.087738 -7.319205 170.233941 7.679989 4.108163 -2.455624 7.570465 7.136650 -3.789622 0.548746 -2.990143 0.687063 0.000000 0.000000 0.000000 7.719806 6.632947 -3.676645 -1.987158 23.555156 6.868877 6.163871 33.810236 -25.034214 0.000000 0.000000 0.000000 8.420268 6.965339 -3.895025 0.994176 -13.945237 -10.535630 -3.246369 -1.553584 -3.695012 3.127740 2.801301 -31.750087 36.313541 -41.161978 1.027716 0.000000 0.000000 0.000000 7.877354 6.898839 -4.256419 5.192709 -18.364644 13.583219 2.410280 3.252141 -1.965425 12.681262 -13.227492 61.072922 34.162011 49.599092 -8.477891 0.000000 0.000000 0.000000 
